<svg width="44" height="44" viewBox="0 0 44 44" fill="none" xmlns="http://www.w3.org/2000/svg">
<g id="Behance">
<circle id="Stroke" cx="22" cy="22" r="21.5" stroke="#DDDDDD"/>
<g id="Icon">
<path id="Vector" d="M20.9168 22.5906C20.6736 22.2855 20.3951 22.0521 20.0832 21.8941C20.3588 21.7264 20.5961 21.5204 20.7923 21.2751C21.1228 20.8612 21.2905 20.3422 21.2905 19.732C21.2905 19.2229 21.1561 18.755 20.8903 18.342C20.6256 17.929 20.2313 17.5974 19.7184 17.3561C19.2163 17.1197 18.6112 17 17.9218 17H14V27.1306H18.1022C18.774 27.1306 19.3742 27.008 19.8851 26.7667C20.4059 26.5214 20.8119 26.1781 21.0904 25.7474C21.3699 25.3148 21.5121 24.8233 21.5121 24.2867C21.5121 23.6579 21.312 23.088 20.9168 22.5916V22.5906ZM18.8338 20.7444C18.5916 20.9406 18.2376 21.0407 17.7835 21.0407H16.0869V18.7962H17.7835C18.2356 18.7962 18.5877 18.8992 18.8299 19.1032C19.0623 19.2984 19.1751 19.5682 19.1751 19.9253C19.1751 20.2824 19.0633 20.559 18.8338 20.7444ZM16.0869 22.8378H17.9081C18.3847 22.8378 18.7515 22.9536 19.029 23.192C19.2948 23.4205 19.4242 23.7237 19.4242 24.12C19.4242 24.5163 19.3046 24.7959 19.0574 25.0048C18.8015 25.2216 18.4337 25.3315 17.963 25.3315H16.0869V22.8378Z" fill="black"/>
<path id="Vector_2" d="M29.5244 20.8965C29.2086 20.3255 28.7614 19.8753 28.1946 19.5594C27.6287 19.2435 26.9746 19.0836 26.2528 19.0836C25.531 19.0836 24.8279 19.2484 24.2483 19.5731C23.6677 19.8988 23.2107 20.3667 22.891 20.9661C22.5713 21.5645 22.4095 22.2669 22.4095 23.0537C22.4095 23.8404 22.5762 24.5438 22.9057 25.1412C23.2352 25.7396 23.6962 26.2104 24.2767 26.5401C24.8563 26.8697 25.5212 27.0364 26.2538 27.0364C27.1531 27.0364 27.9171 26.8079 28.5251 26.3576C29.1331 25.9073 29.5587 25.3207 29.7912 24.6154L29.8078 24.5653H28.0289L28.0181 24.5869C27.6758 25.2805 27.0825 25.6317 26.2528 25.6317C25.6752 25.6317 25.1809 25.4482 24.7837 25.0882C24.3964 24.736 24.1738 24.2652 24.1218 23.6874H29.9392L29.9441 23.655C29.9814 23.4225 30 23.1596 30 22.8741C30 22.1325 29.8402 21.4674 29.5244 20.8965ZM24.8112 20.9985C25.1897 20.6601 25.6517 20.4894 26.1832 20.4894C26.7706 20.4894 27.2698 20.663 27.667 21.0064C28.0534 21.3399 28.2583 21.7882 28.276 22.3375H24.1384C24.2169 21.7794 24.4434 21.3291 24.8122 20.9995L24.8112 20.9985Z" fill="black"/>
<path id="Vector_3" d="M28.1416 17.2335H24.2668V18.1517H28.1416V17.2335Z" fill="black"/>
</g>
</g>
</svg>
