<svg width="44" height="44" viewBox="0 0 44 44" fill="none" xmlns="http://www.w3.org/2000/svg">
<g id="Dribbble">
<circle id="Stroke" cx="22" cy="22" r="21.5" stroke="#DDDDDD"/>
<path id="Icon" d="M29.9813 22.3274C29.9831 22.2997 29.984 22.2712 29.9848 22.2427L30 21.8887L29.9866 21.8851C29.9608 20.0144 29.294 18.2417 28.0915 16.8257L28.1057 16.8106L27.7269 16.4209C26.207 14.8596 24.1719 14 21.9951 14C20.8773 14 19.8022 14.2256 18.7922 14.6688L18.7842 14.6625L18.4562 14.8248C18.0221 15.0397 17.612 15.2911 17.2296 15.5756C16.9747 15.7655 16.7322 15.9688 16.5022 16.1864C16.4166 16.2675 16.3337 16.3505 16.2517 16.4352C15.1276 17.597 14.3646 19.087 14.1016 20.717L14.0169 21.2449L14.0357 21.2493C14.0125 21.4972 14 21.7478 14 21.9974C14 24.117 14.8451 26.1491 16.3328 27.6427L16.3266 27.6543L16.66 27.953C18.1281 29.2691 20.0224 29.9949 21.9942 29.9949C22.1342 29.9949 22.2732 29.9913 22.4114 29.9842C23.3812 29.9352 24.3199 29.7122 25.206 29.3226C25.206 29.3226 25.2069 29.3226 25.2078 29.3226L25.5545 29.1701V29.1594C28.1352 27.8709 29.8583 25.2378 29.9804 22.3497C29.9804 22.3488 29.9804 22.3479 29.9804 22.347C29.9804 22.3461 29.9804 22.3443 29.9804 22.3434V22.3309L29.9813 22.3274ZM28.81 22.7643C28.8064 22.7928 28.8028 22.8214 28.7993 22.8499C28.793 22.8989 28.7868 22.948 28.7797 22.9961C28.7752 23.0273 28.7698 23.0585 28.7645 23.0898C28.7574 23.1352 28.7493 23.1807 28.7413 23.2262C28.7351 23.2592 28.7288 23.2913 28.7217 23.3243C28.7128 23.368 28.7048 23.4116 28.695 23.4544C28.6878 23.4874 28.6798 23.5204 28.6718 23.5534C28.662 23.5962 28.6513 23.6381 28.6406 23.68C28.6317 23.713 28.6228 23.7469 28.6138 23.7799C28.6023 23.8209 28.5907 23.8628 28.5791 23.9039C28.5693 23.9368 28.5595 23.9707 28.5488 24.0037C28.5363 24.0447 28.5229 24.0849 28.5104 24.1259C28.4997 24.1589 28.4882 24.1919 28.4766 24.2249C28.4623 24.265 28.448 24.3051 28.4338 24.3452C28.4222 24.3773 28.4097 24.4103 28.3972 24.4424C28.3821 24.4826 28.366 24.5218 28.35 24.5619C28.3375 24.594 28.3241 24.6252 28.3108 24.6573C28.2938 24.6965 28.2769 24.7358 28.2591 24.775C28.2448 24.8062 28.2314 24.8374 28.2172 24.8678C28.1985 24.907 28.1797 24.9462 28.161 24.9855C28.1467 25.0158 28.1316 25.0452 28.1164 25.0755C28.0968 25.1147 28.0754 25.154 28.0549 25.1932C28.0398 25.2217 28.0246 25.2503 28.0095 25.2788C27.9872 25.3189 27.964 25.3591 27.9408 25.3992C27.9257 25.4259 27.9105 25.4527 27.8954 25.4786C27.8695 25.5222 27.8428 25.5659 27.816 25.6087C27.8027 25.6301 27.7893 25.6524 27.7759 25.6747C27.7385 25.7336 27.7001 25.7915 27.6609 25.8495C27.6574 25.8557 27.6529 25.8611 27.6493 25.8673C27.6057 25.9306 27.5611 25.9931 27.5156 26.0555C27.5023 26.0733 27.488 26.0911 27.4746 26.109C27.4425 26.1527 27.4095 26.1955 27.3766 26.2383C27.3587 26.2615 27.34 26.2837 27.3213 26.3069C27.2919 26.3435 27.2616 26.3809 27.2313 26.4166C27.2108 26.4407 27.1894 26.4647 27.1689 26.4888C27.1395 26.5227 27.11 26.5566 27.0797 26.5905C27.0574 26.6154 27.0352 26.6395 27.0129 26.6636C26.9835 26.6957 26.9531 26.7278 26.9228 26.7599C26.8997 26.784 26.8756 26.808 26.8515 26.8321C26.8212 26.8624 26.7909 26.8936 26.7597 26.924C26.7347 26.948 26.7107 26.9712 26.6857 26.9953C26.6545 27.0247 26.6233 27.0541 26.5921 27.0827C26.5663 27.1059 26.5404 27.1291 26.5146 27.1522C26.4825 27.1808 26.4504 27.2084 26.4174 27.236C26.3907 27.2583 26.3648 27.2806 26.3372 27.3029C26.3042 27.3297 26.2712 27.3573 26.2373 27.3832C26.2106 27.4046 26.183 27.426 26.1553 27.4474C26.1215 27.4732 26.0867 27.4991 26.0528 27.525C26.0252 27.5455 25.9967 27.566 25.969 27.5865C25.9343 27.6114 25.8986 27.6364 25.8629 27.6605C25.8344 27.6801 25.8068 27.6997 25.7783 27.7184C25.7417 27.7425 25.7043 27.7666 25.6677 27.7898C25.6392 27.8076 25.6107 27.8263 25.5821 27.8442C25.5554 27.8611 25.5278 27.8763 25.5001 27.8932C25.3709 26.2062 24.9929 24.4594 24.393 22.7794C25.879 22.4451 27.3873 22.4344 28.8117 22.7518C28.8117 22.7563 28.8117 22.7607 28.8109 22.7643H28.81ZM23.9758 21.7112C23.7744 21.2342 23.5586 20.7678 23.3269 20.3166C24.8191 19.6381 26.1732 18.7259 27.2963 17.6443C28.2198 18.7669 28.7574 20.141 28.8403 21.5971C27.2634 21.2805 25.6035 21.3198 23.9749 21.7112H23.9758ZM15.3371 20.3371C15.363 20.2328 15.3915 20.1285 15.4227 20.0251C15.428 20.0063 15.4343 19.9867 15.4396 19.968C15.4708 19.8672 15.5038 19.7674 15.5395 19.6684C15.5421 19.6613 15.5439 19.655 15.5466 19.6479C15.5511 19.6354 15.5555 19.6229 15.56 19.6104C15.5965 19.5123 15.6349 19.416 15.675 19.3197C15.6812 19.3055 15.6866 19.2921 15.6928 19.2778C15.6937 19.2752 15.6955 19.2725 15.6964 19.2689C15.7383 19.1708 15.7828 19.0745 15.8301 18.9791C15.8372 18.964 15.8452 18.9488 15.8524 18.9328C15.9005 18.8365 15.9504 18.7419 16.003 18.6483C16.011 18.6332 16.0191 18.6189 16.028 18.6046C16.0797 18.5137 16.134 18.4236 16.1902 18.3344C16.1964 18.3246 16.2027 18.3148 16.2089 18.305C16.2125 18.2988 16.2169 18.2925 16.2214 18.2863C16.2785 18.1971 16.3382 18.1097 16.3988 18.0241C16.4095 18.009 16.4211 17.9929 16.4318 17.9778C16.4942 17.8913 16.5593 17.8057 16.6261 17.7219C16.6368 17.7085 16.6484 17.6951 16.6591 17.6817C16.7268 17.5979 16.7964 17.515 16.8686 17.4338C16.8775 17.4231 16.8873 17.4133 16.8962 17.4026C16.9702 17.3197 17.0469 17.2395 17.1253 17.1601C17.1342 17.1512 17.1422 17.1432 17.1512 17.1342C17.2278 17.0584 17.3054 16.9835 17.3856 16.9113C17.3927 16.9051 17.3999 16.8979 17.407 16.8917C17.4114 16.8881 17.415 16.8846 17.4195 16.881C17.4997 16.8097 17.5817 16.7401 17.6646 16.6715C17.678 16.6608 17.6913 16.6492 17.7047 16.6385C17.7894 16.5707 17.875 16.5056 17.9632 16.4414C17.9784 16.4307 17.9935 16.4191 18.0096 16.4084C18.0978 16.3451 18.1879 16.2836 18.2797 16.2247C18.2939 16.2158 18.3091 16.206 18.3234 16.1971C18.4179 16.1374 18.5132 16.0794 18.6113 16.0241C18.6184 16.0205 18.6255 16.0161 18.6327 16.0125C19.7799 17.0112 20.8309 18.2863 21.7081 19.7424C19.5918 20.4869 17.3571 20.7027 15.3309 20.3585C15.3327 20.3505 15.3344 20.3434 15.3362 20.3354L15.3371 20.3371ZM22.3258 15.1431C22.3624 15.1449 22.3989 15.1485 22.4355 15.1503C22.5094 15.1547 22.5825 15.1601 22.6556 15.1663C22.6984 15.1708 22.7412 15.1761 22.784 15.1806C22.85 15.1877 22.9159 15.1957 22.9819 15.2055C23.0274 15.2118 23.0719 15.2198 23.1165 15.2269C23.1798 15.2376 23.2422 15.2483 23.3046 15.2599C23.35 15.2689 23.3955 15.2778 23.441 15.2876C23.5025 15.301 23.564 15.3143 23.6246 15.3295C23.6701 15.3402 23.7146 15.3518 23.7592 15.3634C23.8198 15.3794 23.8804 15.3964 23.9411 15.4142C23.9847 15.4267 24.0284 15.4401 24.0721 15.4534C24.1336 15.473 24.1951 15.4936 24.2566 15.515C24.2976 15.5292 24.3386 15.5426 24.3796 15.5578C24.4456 15.5827 24.5116 15.6086 24.5766 15.6353C24.6114 15.6496 24.6462 15.6621 24.68 15.6772C24.7736 15.7174 24.8663 15.7593 24.9582 15.803C24.9671 15.8074 24.9769 15.8119 24.9858 15.8163C25.0785 15.8609 25.1703 15.9082 25.2603 15.9572C25.2933 15.9751 25.3254 15.9938 25.3575 16.0125C25.419 16.0473 25.4805 16.0821 25.542 16.1195C25.5795 16.1418 25.6151 16.1659 25.6517 16.1891C25.7069 16.2238 25.7613 16.2586 25.8157 16.2952C25.854 16.321 25.8915 16.3478 25.9289 16.3736C25.9806 16.4102 26.0323 16.4468 26.0831 16.4851C26.1206 16.5127 26.1571 16.5413 26.1946 16.5698C26.2445 16.609 26.2944 16.6483 26.3434 16.6893C26.3791 16.7187 26.4147 16.749 26.4504 16.7794C26.4691 16.7954 26.4878 16.8132 26.5065 16.8293C25.4565 17.8405 24.1826 18.6893 22.7769 19.318C21.9175 17.8583 20.8906 16.5609 19.763 15.5043C20.4761 15.2582 21.2231 15.1333 21.9933 15.1333C22.1047 15.1333 22.2153 15.136 22.3258 15.1413V15.1431ZM15.1535 21.4812C15.8417 21.5971 16.5503 21.655 17.2688 21.655C18.9251 21.655 20.6357 21.3501 22.2705 20.75C22.4863 21.1646 22.6895 21.5917 22.8785 22.0304C22.7831 22.0625 22.6886 22.0946 22.5941 22.1294C20.1962 23.0166 18.2093 24.5958 16.9212 26.6137C15.7784 25.3573 15.1339 23.7104 15.1339 21.9966C15.1339 21.8245 15.141 21.6524 15.1535 21.4812ZM21.6902 28.8509C21.6572 28.8491 21.6243 28.8464 21.5913 28.8446C21.5235 28.8411 21.4567 28.8366 21.3889 28.8304C21.3497 28.8268 21.3114 28.8223 21.2722 28.8179C21.2115 28.8116 21.15 28.8045 21.0894 28.7965C21.0484 28.7911 21.0074 28.7849 20.9664 28.7787C20.9085 28.7697 20.8505 28.7608 20.7926 28.7501C20.7507 28.743 20.7088 28.735 20.6678 28.726C20.6107 28.7144 20.5546 28.7029 20.4984 28.6904C20.4565 28.6815 20.4155 28.6716 20.3745 28.6609C20.3183 28.6476 20.2622 28.6324 20.2069 28.6181C20.1659 28.6074 20.1258 28.5959 20.0857 28.5843C20.0295 28.5682 19.9734 28.5504 19.9172 28.5325C19.878 28.5201 19.8397 28.5085 19.8004 28.4951C19.7425 28.4755 19.6846 28.4541 19.6275 28.4336C19.5918 28.4202 19.5553 28.4077 19.5196 28.3934C19.4572 28.3694 19.3948 28.3435 19.3324 28.3168C19.303 28.3043 19.2736 28.2927 19.2442 28.2802C19.155 28.241 19.0668 28.1999 18.9794 28.1571C18.9777 28.1571 18.9759 28.1554 18.9741 28.1545C18.8841 28.1108 18.7958 28.0644 18.7076 28.0163C18.6817 28.002 18.6559 27.9859 18.6291 27.9717C18.5685 27.9378 18.5079 27.903 18.4482 27.8674C18.4161 27.8477 18.384 27.8272 18.3519 27.8067C18.2993 27.7737 18.2467 27.7407 18.195 27.706C18.1611 27.6837 18.1272 27.6596 18.0943 27.6364C18.0452 27.6025 17.9971 27.5686 17.949 27.533C17.9142 27.508 17.8803 27.4821 17.8465 27.4563C17.8206 27.4367 17.7948 27.4162 17.7689 27.3957C18.9179 25.5017 20.756 24.0189 22.989 23.1923C23.0906 23.1548 23.194 23.1201 23.2975 23.0853C23.9339 24.8419 24.3119 26.6761 24.3975 28.4229C24.2985 28.4603 24.1987 28.4951 24.0988 28.5272C24.0721 28.5361 24.0445 28.5432 24.0177 28.5513C23.9393 28.5753 23.8599 28.5994 23.7806 28.6208C23.7414 28.6315 23.7013 28.6404 23.6611 28.6511C23.5934 28.6681 23.5257 28.6841 23.457 28.6993C23.4142 28.7091 23.3705 28.7171 23.3269 28.726C23.2609 28.7394 23.1949 28.751 23.1281 28.7626C23.0844 28.7697 23.0398 28.7769 22.9953 28.7831C22.9275 28.7929 22.8598 28.8018 22.7911 28.809C22.7483 28.8143 22.7064 28.8188 22.6637 28.8232C22.5888 28.8304 22.5139 28.8357 22.439 28.8402C22.4025 28.8428 22.3668 28.8455 22.3303 28.8473C22.2188 28.8527 22.1065 28.8562 21.9942 28.8562C21.8926 28.8562 21.7919 28.8535 21.6911 28.8491L21.6902 28.8509Z" fill="black"/>
</g>
</svg>
