<svg width="44" height="44" viewBox="0 0 44 44" fill="none" xmlns="http://www.w3.org/2000/svg">
<g id="Instragram">
<circle id="Stroke" cx="22" cy="22" r="21.5" stroke="#DDDDDD"/>
<g id="Icon">
<path id="Vector" d="M25.665 14H17.5353C15.2894 14 13.4622 15.8277 13.4622 18.0743V25.5139C13.4622 27.7606 15.2894 29.5882 17.5353 29.5882H25.665C27.9109 29.5882 29.7381 27.7606 29.7381 25.5139V18.0743C29.7381 15.8277 27.9109 14 25.665 14ZM14.8991 18.0743C14.8991 16.6204 16.0819 15.4373 17.5353 15.4373H25.665C27.1184 15.4373 28.3012 16.6204 28.3012 18.0743V25.5139C28.3012 26.9678 27.1184 28.151 25.665 28.151H17.5353C16.0819 28.151 14.8991 26.9678 14.8991 25.5139V18.0743Z" fill="black"/>
<path id="Vector_2" d="M21.6002 25.583C23.6888 25.583 25.3889 23.8833 25.3889 21.7932C25.3889 19.7031 23.6897 18.0034 21.6002 18.0034C19.5107 18.0034 17.8115 19.7031 17.8115 21.7932C17.8115 23.8833 19.5107 25.583 21.6002 25.583ZM21.6002 19.4416C22.8972 19.4416 23.952 20.4968 23.952 21.7941C23.952 23.0915 22.8972 24.1466 21.6002 24.1466C20.3033 24.1466 19.2484 23.0915 19.2484 21.7941C19.2484 20.4968 20.3033 19.4416 21.6002 19.4416Z" fill="black"/>
<path id="Vector_3" d="M25.7395 18.6157C26.3019 18.6157 26.7603 18.1581 26.7603 17.5946C26.7603 17.0311 26.3028 16.5735 25.7395 16.5735C25.1762 16.5735 24.7187 17.0311 24.7187 17.5946C24.7187 18.1581 25.1762 18.6157 25.7395 18.6157Z" fill="black"/>
</g>
</g>
</svg>
